<svg xmlns="http://www.w3.org/2000/svg" width="760" height="400" viewBox="0 0 760 400">
  <rect width="760" height="400" fill="#ffffff"/>
  <text x="380" y="32" text-anchor="middle" font-family="Arial, sans-serif" font-size="20" fill="#111827">v6.2 vs CDSD full500 macro</text>
  <text x="24" y="200" transform="rotate(-90 24 200)" text-anchor="middle" font-family="Arial, sans-serif" font-size="13" fill="#374151">32B judge accuracy (%)</text>
  <line x1="90" y1="330" x2="720" y2="330" stroke="#9ca3af" stroke-width="1"/>
  <line x1="90" y1="70" x2="90" y2="330" stroke="#9ca3af" stroke-width="1"/>
  <g font-family="Arial, sans-serif" font-size="11" fill="#6b7280">
    <text x="78" y="334" text-anchor="end">76</text><line x1="86" y1="330" x2="720" y2="330" stroke="#e5e7eb"/>
    <text x="78" y="282" text-anchor="end">78</text><line x1="86" y1="278" x2="720" y2="278" stroke="#e5e7eb"/>
    <text x="78" y="230" text-anchor="end">80</text><line x1="86" y1="226" x2="720" y2="226" stroke="#e5e7eb"/>
    <text x="78" y="178" text-anchor="end">82</text><line x1="86" y1="174" x2="720" y2="174" stroke="#e5e7eb"/>
    <text x="78" y="126" text-anchor="end">84</text><line x1="86" y1="122" x2="720" y2="122" stroke="#e5e7eb"/>
  </g>
  <g font-family="Arial, sans-serif" font-size="11" fill="#111827">
    <rect x="170" y="185" width="46" height="145" fill="#9ca3af"/><text x="193" y="178" text-anchor="middle">81.60</text>
    <rect x="224" y="134" width="46" height="196" fill="#2563eb"/><text x="247" y="127" text-anchor="middle">83.55</text>
    <text x="220" y="354" text-anchor="middle">Qwen3.5-9B</text>
    <rect x="370" y="254" width="46" height="76" fill="#9ca3af"/><text x="393" y="247" text-anchor="middle">78.95</text>
    <rect x="424" y="240" width="46" height="90" fill="#2563eb"/><text x="447" y="233" text-anchor="middle">79.50</text>
    <text x="420" y="354" text-anchor="middle">Qwen3-8B</text>
    <rect x="570" y="259" width="46" height="71" fill="#9ca3af"/><text x="593" y="252" text-anchor="middle">78.75</text>
    <rect x="624" y="232" width="46" height="98" fill="#2563eb"/><text x="647" y="225" text-anchor="middle">79.80</text>
    <text x="620" y="354" text-anchor="middle">Qwen2.5-14B</text>
  </g>
  <rect x="535" y="54" width="14" height="14" fill="#9ca3af"/><text x="555" y="66" font-family="Arial, sans-serif" font-size="12" fill="#374151">CDSD</text>
  <rect x="610" y="54" width="14" height="14" fill="#2563eb"/><text x="630" y="66" font-family="Arial, sans-serif" font-size="12" fill="#374151">v6.2</text>
</svg>

